<?xml version="1.0" standalone="no"?>
<!DOCTYPE svg PUBLIC "-//W3C//DTD SVG 20010904//EN"
 "http://www.w3.org/TR/2001/REC-SVG-20010904/DTD/svg10.dtd">
<svg version="1.0" xmlns="http://www.w3.org/2000/svg"
 width="580.000000pt" height="580.000000pt" viewBox="0 0 580.000000 580.000000"
 preserveAspectRatio="xMidYMid meet">
<metadata>
Created by potrace 1.14, written by Peter Selinger 2001-2017
</metadata>
<g transform="translate(0.000000,580.000000) scale(0.100000,-0.100000)"
fill="#000000" stroke="none">
<path d="M2859 5706 c-2 -2 -24 -5 -49 -7 -25 -1 -49 -6 -55 -10 -5 -4 -29
-12 -52 -18 -23 -6 -59 -19 -80 -28 -21 -9 -42 -17 -48 -19 -5 -1 -34 -13 -64
-28 -30 -14 -61 -26 -68 -26 -7 0 -13 -5 -13 -12 0 -6 -3 -9 -6 -6 -7 7 -226
-101 -236 -116 -4 -6 -8 -8 -8 -4 0 8 -160 -83 -210 -120 -60 -44 -136 -127
-185 -202 -45 -69 -55 -84 -62 -100 -4 -8 -9 -17 -12 -20 -13 -11 -39 -67 -45
-95 -3 -16 -8 -75 -11 -130 -14 -258 -20 -338 -30 -425 -3 -19 -7 -57 -10 -85
-3 -27 -7 -61 -10 -75 -3 -14 -7 -36 -10 -50 -8 -43 -14 -74 -20 -100 -10 -46
-15 -70 -20 -92 -9 -41 -18 -93 -17 -98 0 -3 -4 -11 -10 -17 -6 -7 -8 -13 -5
-13 3 0 -8 -51 -25 -112 -34 -132 -32 -123 -42 -168 -5 -19 -12 -39 -16 -45
-5 -5 -9 -13 -9 -17 -1 -4 -4 -14 -7 -22 -3 -8 3 -23 13 -33 22 -21 89 -73
100 -76 4 -1 17 -11 28 -22 22 -21 31 -27 105 -73 87 -54 279 -135 370 -157 8
-2 30 -8 48 -14 17 -5 32 -7 32 -4 0 3 6 0 14 -6 7 -6 26 -12 42 -13 16 -1 34
-6 41 -10 6 -5 26 -10 43 -10 17 -1 33 -4 35 -8 5 -9 -69 -85 -131 -134 -27
-22 -56 -46 -64 -54 -45 -40 -142 -106 -195 -131 -48 -23 -108 -44 -122 -42
-2 0 -17 -5 -35 -10 -18 -5 -46 -12 -63 -14 -16 -3 -41 -8 -55 -10 -19 -4 -34
3 -61 27 -31 28 -38 45 -53 113 -9 44 -19 100 -21 124 -3 24 -8 48 -11 53 -3
5 -8 21 -10 36 -6 45 -12 77 -14 77 -1 0 -3 11 -6 25 -2 14 -6 36 -8 50 -4 22
-25 135 -40 215 -3 17 -8 41 -11 55 -5 23 -11 56 -30 160 -3 19 -8 43 -11 52
-7 25 -14 59 -19 93 -2 17 -6 41 -9 55 -3 14 -9 39 -12 55 -4 17 -8 41 -10 55
-2 14 -9 50 -15 80 -6 30 -12 64 -14 75 -2 11 -11 58 -21 105 -9 47 -18 101
-21 120 -2 19 -7 42 -10 50 -3 8 -7 26 -9 40 -3 23 -14 81 -20 105 -2 10 -30
158 -41 222 -3 18 -20 49 -37 69 -39 44 -94 55 -149 29 -59 -28 -76 -94 -52
-210 4 -16 15 -75 26 -130 11 -55 22 -107 24 -115 1 -8 12 -64 23 -125 12 -60
24 -123 27 -140 4 -16 11 -50 15 -75 5 -25 12 -56 15 -70 3 -14 8 -43 10 -64
3 -21 8 -43 12 -49 3 -5 7 -21 8 -36 2 -14 13 -75 25 -136 12 -60 23 -121 26
-135 2 -14 7 -36 10 -50 3 -14 7 -36 9 -50 2 -14 13 -70 24 -125 11 -55 23
-116 26 -135 3 -19 8 -42 10 -50 2 -8 6 -26 9 -40 4 -26 17 -94 21 -120 2 -8
9 -37 15 -65 6 -27 14 -63 16 -80 2 -16 6 -41 9 -55 16 -71 17 -69 -12 -64
-104 15 -160 -1 -187 -54 -16 -32 -15 -107 2 -124 16 -16 15 -38 -3 -57 -7 -9
-18 -42 -23 -73 -8 -51 -7 -60 13 -84 18 -23 20 -30 10 -41 -22 -22 -28 -87
-11 -126 26 -63 100 -92 246 -96 47 -1 85 -3 86 -4 1 -1 5 -20 9 -42 4 -22 8
-47 10 -55 2 -8 6 -41 10 -72 11 -82 33 -114 87 -123 82 -14 130 -2 172 43 20
23 32 84 21 110 -4 9 -9 34 -11 56 -2 21 -8 45 -13 54 -10 18 8 61 40 93 11
11 22 33 26 49 6 35 14 37 51 12 15 -10 36 -23 47 -29 18 -9 20 -20 19 -114 0
-57 -4 -138 -8 -179 -5 -41 -9 -88 -11 -105 -3 -32 -29 -182 -44 -255 -5 -25
-7 -48 -5 -52 2 -4 0 -9 -5 -12 -4 -3 -12 -25 -16 -48 -4 -24 -9 -47 -11 -53
-2 -5 -15 -53 -29 -105 -15 -52 -28 -99 -29 -105 -2 -5 -6 -17 -9 -25 -50
-132 -99 -268 -99 -277 -1 -7 -5 -13 -10 -13 -4 0 -8 -7 -8 -15 0 -8 -13 -43
-30 -78 -27 -57 -28 -63 -13 -74 24 -18 209 -73 266 -79 9 -1 18 -2 20 -4 1
-1 11 -3 22 -5 75 -11 101 -19 111 -33 7 -9 9 -19 6 -22 -4 -3 -7 -21 -6 -40
4 -126 3 -120 30 -131 15 -5 36 -11 48 -14 11 -2 22 -4 24 -6 3 -2 6 -3 72
-17 101 -22 177 -33 254 -36 22 -1 41 -7 43 -13 3 -7 -14 -48 -37 -93 l-40
-82 197 5 c109 2 207 6 218 9 11 3 42 9 70 12 27 4 83 14 125 22 41 8 89 18
105 20 17 3 75 17 130 31 54 14 104 26 110 28 5 1 17 4 25 7 56 21 226 72 233
70 4 -1 7 2 7 7 0 5 12 12 27 16 40 10 117 46 125 59 4 6 8 53 8 104 0 81 2
92 18 93 27 1 101 14 152 27 43 11 150 61 150 70 0 4 27 20 61 36 71 33 71 35
9 145 -42 74 -78 149 -104 219 -18 47 -66 239 -69 271 -1 12 -4 21 -7 21 -3 0
-5 12 -6 28 -1 27 -12 137 -14 137 -9 0 -19 451 -12 552 4 59 5 62 32 68 16 4
56 24 90 46 l60 39 41 -40 c23 -22 48 -40 56 -40 8 0 22 -4 32 -9 15 -9 17
-18 10 -65 -4 -31 -10 -87 -14 -124 l-7 -70 33 -23 c33 -23 40 -26 92 -33 37
-5 95 23 101 49 3 12 8 46 11 76 3 30 8 64 11 77 2 12 7 48 10 80 3 31 9 60
12 64 4 4 52 10 106 13 105 7 170 26 186 55 17 31 4 120 -21 146 -20 22 -21
25 -6 47 11 16 15 43 14 82 -2 47 -7 61 -27 77 -23 19 -23 20 -7 48 33 54 20
113 -33 152 -35 26 -33 25 -96 27 l-46 1 6 58 c3 31 8 75 10 97 3 22 7 73 11
114 3 40 8 88 10 105 3 17 7 56 9 86 3 30 7 71 10 90 2 19 7 64 11 100 3 36 8
83 10 105 3 22 7 67 10 100 6 73 13 148 20 195 2 19 7 64 10 100 4 36 8 81 10
100 2 19 7 62 10 95 3 33 8 76 10 95 2 19 7 60 10 90 3 30 8 73 10 95 10 89
16 153 20 207 2 31 5 61 8 65 2 4 5 52 6 106 1 97 0 99 -29 129 -27 27 -36 29
-78 26 -66 -6 -75 -10 -95 -40 -20 -30 -23 -42 -32 -130 -8 -80 -13 -133 -19
-183 -3 -22 -8 -69 -11 -105 -3 -36 -8 -81 -10 -100 -2 -19 -7 -66 -10 -105
-3 -38 -7 -81 -9 -95 -7 -48 -15 -115 -21 -180 -3 -36 -8 -83 -10 -105 -3 -22
-7 -62 -10 -90 -7 -71 -16 -128 -21 -137 -2 -3 0 -9 6 -13 6 -4 7 -13 1 -23
-5 -9 -11 -48 -14 -87 -4 -38 -8 -79 -11 -91 -2 -11 -7 -54 -10 -95 -4 -41 -9
-90 -11 -109 -7 -51 -13 -107 -20 -170 -3 -30 -8 -73 -10 -95 -10 -85 -17
-151 -19 -170 -1 -14 -12 -23 -39 -30 -24 -7 -60 -32 -93 -63 -41 -40 -58 -51
-72 -45 -9 5 -30 8 -45 7 -15 0 -30 3 -33 7 -3 5 -16 9 -28 9 -28 0 -207 58
-221 71 -5 5 -17 9 -27 9 -10 0 -18 5 -18 10 0 6 -5 10 -11 10 -18 0 -172 108
-238 169 -97 88 -106 101 -70 101 12 0 49 7 83 16 60 16 75 19 117 29 69 15
259 77 259 85 0 3 6 7 13 7 20 0 107 37 107 46 0 4 6 7 13 7 15 0 171 90 175
102 2 4 10 8 18 8 8 0 14 5 14 10 0 6 5 10 11 10 6 0 33 22 60 49 54 54 56 65
26 135 -9 21 -17 44 -17 51 0 6 -3 15 -7 19 -4 3 -8 13 -9 21 -3 22 -44 148
-54 166 -5 9 -12 33 -15 53 -4 20 -11 39 -16 42 -5 3 -7 9 -4 14 3 5 1 20 -5
34 -5 15 -12 37 -14 49 -3 12 -13 56 -22 97 -9 41 -18 86 -20 100 -2 14 -8 46
-13 71 -16 74 -22 137 -26 236 -1 50 -6 96 -9 102 -4 6 -4 11 1 11 8 0 17 134
17 275 0 75 -2 86 -47 176 -25 53 -53 102 -62 109 -8 7 -15 17 -15 23 0 13
-142 153 -195 192 -22 17 -42 32 -45 36 -3 3 -32 24 -65 46 -114 76 -363 184
-490 212 -27 6 -61 14 -75 17 -14 3 -35 7 -47 9 -12 2 -34 6 -50 9 -39 9 -139
17 -144 12z"/>
</g>
</svg>
